<svg xmlns="http://www.w3.org/2000/svg" height="24px" viewBox="0 -960 960 960" width="24px" fill="#f2c94c"><path d="M556-404q31-31 31-76t-31-76q-31-31-76-31t-76 31q-31 31-31 76t31 76q31 31 76 31t76-31Zm-227 75q-62-62-62-151t62-151q62-62 151-62t151 62q62 62 62 151t-62 151q-62 62-151 62t-151-62Zm-116-98H27v-106h186v106Zm720 0H747v-106h186v106ZM427-747v-186h106v186H427Zm0 720v-186h106v186H427ZM257-631 137-748l74-76 115 118-69 75Zm492 494L635-253l69-75 119 116-74 75ZM631-703l117-120 76 74-118 115-75-69ZM137-212l116-113 75 69-116 119-75-75Zm343-268Z"/></svg>